# xmcd
#
# Track frame offsets: 
#        150
#        25300
#        54875
#        79100
#        108625
#        147350
#        174650
#        202050
#        241974
#        269775
#        287000
#        310625
#
# Disc length: 4555 seconds
#
# Revision: 0
# Processed by: cddbd v1.5.2PL0 Copyright (c) Steve Scherf et al.
# Submitted via: ExactAudioCopy v1.0b3
#
DISCID=af11c90c
DTITLE=Various Artist - Trance Addiction Vol. 3 - CD 2
DYEAR=1900
DGENRE=
TTITLE0=Paul Johnson - Noise (Snapshot With Scott Rooney Rmx)
TTITLE1=The Horrorist - One Night In NYC (C. Liebing Rmx)
TTITLE2=Storm - Stormanimal (Elektrochemie LK Rmx)
TTITLE3=DJ Lawless - Prophecy Of X-Tasy (Go To Hell Mix)
TTITLE4=Darude - Feel The Beat (Original Mix)
TTITLE5=Axel Konrad - R.U.F.F. Cuts (Club Mix)
TTITLE6=3 Phase Feat. Dr. Motte - Der Klang Der Familie (T. Schuhmache
TTITLE6=r Mix)
TTITLE7=Sven Väth - L'Esperenza (Paul Van Dyk Rmx)
TTITLE8=Atlantis Vs. Avatar Feat. Miriam Stockley - Fiji (Binary Finar
TTITLE8=y Breaks Rmx)
TTITLE9=M-Waxx - Light Of The Darkness (Radio Mix)
TTITLE10=BioSt8 - Republic
TTITLE11=Talla 2XLC - World In My Eyes (Marc La Cruz UK Club Mix)
EXTD=
EXTT0=
EXTT1=
EXTT2=
EXTT3=
EXTT4=
EXTT5=
EXTT6=
EXTT7=
EXTT8=
EXTT9=
EXTT10=
EXTT11=
PLAYORDER=
